<?xml version="1.0" encoding="UTF-8"?>
<svg id="Layer_2" xmlns="http://www.w3.org/2000/svg" viewBox="0 0 450 354.81">
  <defs>
    <style>
      .cls-1 {
        fill: #00aff0;
      }

      .cls-2 {
        fill: #08233c;
      }
    </style>
  </defs>
  <g id="Layer_1-2" data-name="Layer_1">
    <g>
      <g>
        <path class="cls-1" d="M280.57,110.85c-14.3-68.99-88.99-75.77-88.99-75.76-38.98-5.48-77.13,22.84-108.3,68.31-35.22,51.38-61.32,121.37-66.05,128.08,0,0,26.68,92.73,32.3,104.52,12.58-13.17,53.76-111.63,64.05-171.21,10.29-59.58,37.5-84.04,37.5-84.03,38.89-37.25,109.49-30.24,112.33,59.57l17.16-29.48Z"/>
        <path class="cls-1" d="M175.92,0C85.25,4.04,26.19,127.48,0,164.5l6.7,46.76C50.57,137.78,88.42,9.88,193.72,18.62c0,0,78.37,12.37,95.29,78.07l11.24-18.85S258.87,2.11,175.92,0Z"/>
        <path class="cls-1" d="M118.01,307.5c-6.95-27.32-9.39-77.31-7.57-87.86.09-1.06-9.45,42.27-9.37,41.24-2.6,9.57-7.66,25.43-11.66,39.58.7,3.06,39.09,54.35,39.09,54.35,0,0-7.69-36.29-10.49-47.3Z"/>
        <path class="cls-1" d="M180.84,332.61c-27.71-53.82-27.69-52.45-36.19-85.97-2.7-10.66-11.15-48.21-9.96-76.11.96-22.32,6.1-44.09,8.89-57.97-7.97,15.18-13.45,31.09-17.08,47-1.13,4.95-2.08,9.9-2.87,14.83-1.14,7.1-2.24,18.57-2.77,25.51-4.61,60.58,12.15,108.28,12.15,108.28,1.09,2.02,29.74,19.12,44.38,28.18l3.44-3.74Z"/>
        <path class="cls-1" d="M220.05,281.89c-19.52-9.83-37.01-25.21-46.7-48.69-35.4-85.75,14.8-152.67,29.22-159.6-16.22-.26-42.97,10.98-47.83,27.85-23.9,82.92,6.59,164.01,35.7,216.24.25.44.49.88.74,1.32l28.87-37.12Z"/>
      </g>
      <path class="cls-2" d="M378.51,224.34c46.42,0,71.49,17.37,71.49,52.12,0,39.02-23.64,62.37-81.74,62.37h-177.44l37.88-48.99h144.12c13.96,0,20.22-3.99,20.22-13.96s-6.26-13.67-20.22-13.67h-103.67c-48.99,0-71.49-21.93-71.49-54.68,0-35.89,23.92-59.24,81.74-59.24h165.48l-37.88,49.56h-132.15c-13.67,0-20.22,3.42-20.22,13.1s6.55,13.38,20.22,13.38h103.67Z"/>
    </g>
  </g>
</svg>